<?xml version="1.0" encoding="utf-8"?>
<!-- Generator: Adobe Illustrator 22.0.0, SVG Export Plug-In . SVG Version: 6.00 Build 0)  -->
<svg version="1.1" id="Capa_1" xmlns="http://www.w3.org/2000/svg" xmlns:xlink="http://www.w3.org/1999/xlink" x="0px" y="0px"
	 viewBox="0 0 900 267.7" style="enable-background:new 0 0 900 267.7;" xml:space="preserve">
<g>
	<path style="fill:#212020;" d="M27.9,215.7c10.7,0,21.4,0,32,0c37.2,0,74.3,0,111.5,0c3.6,0,3.6,0,3.6-3.7c0-19.5,0-38.9,0-58.4
		c0-2.9,0-2.9-2.9-2.9c-3.4,0-6.9,0-10.3,0c-2.6,0-2.9,0.2-3,2.8c-0.2,5.1-0.9,10.2-1.8,15.3c-1,5.7-2.5,11.2-5.1,16.4
		c-4.6,9.1-12.1,13.7-22.1,13.9c-15.3,0.3-30.5,0.1-45.8,0.1c-2.3,0-2.6-0.4-2.7-2.6c0-16.9,0-33.7,0-50.6c0-2.2,0.4-2.6,2.5-2.6
		c4.9,0.1,9.7-0.4,14.6,0.3c7.7,1,12.1,5.6,14.2,12.8c1.4,5.1,1.7,10.4,1.7,15.6c0,3.1,0,3.1,3.1,3.1c3.6,0,7.2,0,10.8,0
		c1.8,0,2-0.2,2-2c0-24.4,0-48.9,0-73.3c0-2-0.2-2.2-2.2-2.2c-3.9,0-7.9,0-11.8,0c-1.7,0-1.9,0.2-1.9,1.9c0,4.8-0.4,9.5-1.6,14.1
		c-2.2,8.4-8.2,13.1-16.9,13.1c-3.9,0-7.7,0-11.6,0c-2.5,0-2.8-0.4-2.8-2.8c0-14.8,0-29.5,0-44.3c0-2.4,0.3-2.8,2.8-2.8
		c13.8,0,27.5-0.1,41.3,0c6,0.1,12,0.9,17.5,3.8c4.1,2.1,7.1,5.2,9.2,9.2c3,5.8,4.2,12.1,5.1,18.5c0.5,3.7,1,7.3,1.4,11
		c0.2,2,0.4,2.3,2.5,2.3c3.7,0,7.4,0,11.1,0c2.6,0,2.6,0,2.6-2.6c0-10,0-20,0-30c0-8.6,0-17.3,0-25.9c0-2.8-0.1-2.9-2.9-2.9
		c-47.9,0-95.8,0-143.7,0c-1.1,0-2.2,0.3-3.2-0.5c0,5.9,0,11.7,0,17.6c5.2,0.1,10.4-0.3,15.6,0.3c5.9,0.7,8.5,3.3,9,9.2
		c0.1,1.5,0.2,3,0.2,4.5c0,30,0,59.9,0,89.9c0,3.3-0.1,6.5-0.9,9.7c-1.3,5-4.1,7.4-9.3,7.5c-4.9,0.1-9.7,0-14.6,0
		c0,5.9,0,11.7,0,17.6C26,215.5,27,215.7,27.9,215.7z"/>
	<path style="fill:#016CA1;" d="M733.8,26.4c-9,2-18,3.9-27.1,5.8c-15,3.2-30.1,6.4-45.1,9.7c-0.8,0.2-1.6,0.3-2.5,0.4
		c9.4-0.1,18.9-0.1,28.3-0.1c14.9,0,29.9,0,44.8,0c0.6,0,1.1,0,1.7,0c1.3,0.1,1.8-0.5,1.8-1.8c0-4.2,0-8.4,0-12.6
		c0-0.8-0.1-1.7,0.5-2.4c-0.2,0-0.4,0-0.7,0C735.3,26.3,734.5,26.2,733.8,26.4z"/>
	<path style="fill:#212020;" d="M736.2,200c0-1.1-0.3-1.4-1.4-1.4c-4.3,0-8.6,0.1-12.9,0c-5.5-0.1-8.7-2.9-9.7-8.3
		c-0.2-1.2-0.2-2.3-0.2-3.5c0-32.5,0-65.1,0-97.6c0-6.8,3.4-10.5,10.1-11.5c4.2-0.6,8.5-0.2,12.8-0.3c1.2,0,1.5-0.3,1.4-1.5
		c-0.1-4.9-0.1-9.7,0-14.6c0-1-0.2-1.4-1.3-1.4c-25.9,0-51.8,0-77.7,0c-1.1,0-1.4,0.3-1.4,1.4c0.1,4.9,0.1,9.7,0,14.6
		c0,1.3,0.5,1.5,1.6,1.5c4.1-0.1,8.3-0.1,12.4,0c5.8,0.2,9.2,3,10.1,8.1c0.2,1,0.2,2.1,0.2,3.1c0,33.6,0,67.2,0,100.7
		c0,5.6-2.1,8.1-7.7,8.8c-5.2,0.7-10.5,0.4-15.7,0.2c-3.4-0.1-6.8-0.6-10-2.1c-5.1-2.3-7.6-6.8-9.4-11.8
		c-14.8-41.1-29.6-82.2-44.4-123.3c-0.4-1.1-0.8-1.4-2-1.4c-9.6,0.1-19.1,0.1-28.7,0c-1.3,0-1.8,0.5-2.2,1.6
		c-10.3,30-20.6,60.1-31,90.1c-4.1,11.8-8.1,23.6-12.2,35.3c-1.9,5.4-5.7,9-11.3,10.5c-3.5,0.9-7.1,1.2-10.7,1.1
		c-1.1,0-1.4,0.3-1.4,1.4c0.1,4.9,0.1,9.7,0,14.6c0,1.1,0.3,1.5,1.5,1.5c22.7,0,45.4,0,68,0c1.1,0,1.4-0.3,1.4-1.4
		c-0.1-4.9-0.1-9.7,0-14.6c0-1.3-0.5-1.5-1.6-1.5c-5.7,0-11.4,0-17.1,0c-1.2,0-2.3-0.2-3.4-0.5c-2-0.7-2.8-1.8-2.9-3.9
		c0-1.5,0.3-3,0.8-4.4c2.4-7.5,4.8-14.9,7.1-22.4c0.4-1.2,0.9-1.5,2.1-1.5c14.7,0,29.3,0,44,0c1.9,0,4.3-0.6,5.7,0.3
		c1.5,0.9,1.5,3.5,2.1,5.4c2.1,6.6,4.5,13.2,6.2,19.9c1.3,5.4,0,7-5.6,7.1c-5.7,0.1-11.4,0.1-17.1,0c-1.4,0-2,0.3-1.9,1.9
		c0.1,4.6,0.1,9.2,0,13.8c0,1.6,0.5,1.9,1.9,1.9c24.9,0,49.9,0,74.8,0c25.1,0,50.1,0,75.2,0c1.4,0,1.8-0.3,1.7-1.7
		C736.1,209.6,736.1,204.8,736.2,200z M554.3,148.4c6.1-19,12.1-37.8,18.1-56.6c0.1,0,0.3,0,0.4,0c6.6,18.8,13.1,37.7,19.7,56.6
		C579.7,148.4,567.1,148.4,554.3,148.4z"/>
	<path style="fill:#212020;" d="M854.9,133.7c-7.7-4.8-16.2-7.7-24.9-10.1c-9.8-2.7-19.8-4.5-29.6-7c-6-1.6-12-3.3-17.4-6.7
		c-5.9-3.7-8.7-9-8.2-16c0.7-10.4,5.4-15.9,15.6-18.1c5.2-1.1,10.4-1.4,15.7-1.2c15.1,0.5,26.8,7,34.9,19.8
		c4.5,7.1,7.3,14.9,9.1,23.1c0.3,1.2,0.6,1.7,2,1.7c4.4-0.1,8.8-0.1,13.3,0c1,0,1.3-0.2,1.3-1.3c0-19.2,0-38.4,0-57.6
		c0-1.1-0.3-1.3-1.3-1.3c-3.5,0.1-7,0.1-10.5,0c-1,0-1.6,0.4-2.1,1.2c-1.9,3.1-3.9,6.1-5.6,9.2c-0.8,1.4-1.4,1.3-2.5,0.4
		c-2.7-2.1-5.6-3.9-8.5-5.7c-8.2-4.9-17-8.5-26.6-9.6c-10.3-1.1-20.4,0.2-30.2,3.7C768,62.4,758.7,69.1,752.9,80
		c-4.7,8.9-5.8,18.4-4.9,28.3c1.3,14.1,7.9,25,20,32.3c7.9,4.8,16.6,7.5,25.5,9.8c10.2,2.6,20.5,4.4,30.6,7.3
		c5.7,1.6,11.3,3.6,16.1,7.2c10.2,7.7,10.3,22.6,0.2,30.4c-3.1,2.4-6.6,3.9-10.4,4.8c-9.1,2.1-18.1,1.6-27.1-0.4
		c-14.1-3.1-24.8-10.9-31.4-24c-3.5-7-5.3-14.5-6.1-22.2c-0.1-1-0.4-1.2-1.4-1.2c-4.6,0-9.2,0.1-13.8,0c-1.3,0-1.6,0.3-1.6,1.6
		c0.1,10.2,0,20.5,0,30.7c0,10.3,0,20.6,0,30.9c0,1.1,0.3,1.5,1.5,1.5c4.2-0.1,8.4-0.1,12.6,0c0.9,0,1.4-0.3,1.7-1.2
		c1.2-3.6,2.5-7.1,3.7-10.6c0.8-2.3,0.8-2.3,2.8-0.7c22.4,18.1,47.4,21.6,74.3,12.5c12-4.1,20.9-11.9,25.8-23.9
		c3.5-8.6,4.4-17.6,3.6-26.8C873.5,152.2,867,141.2,854.9,133.7z"/>
	<path style="fill:#212020;" d="M515.1,127.8c4.8-6.6,6.8-14.2,7.2-22.2c0.8-17.1-6.2-31.7-23.1-39.5c-8.9-4.2-18.4-5.8-28.2-5.9
		c-30.6-0.1-61.3-0.1-91.9-0.1c-1.2,0-1.3,0.5-1.3,1.5c0,4.8,0.1,9.5,0,14.3c0,1.3,0.3,1.8,1.7,1.8c4.8-0.1,9.6-0.1,14.4,0
		c4.4,0.1,7.3,2.1,8.2,5.4c0.4,1.3,0.3,2.6,0.3,4c0,17,0,34.1,0,51.1c0,17,0,34.1,0,51.1c0,1,0,2-0.1,3c-0.3,2.6-1.6,4.4-3.9,5.5
		c-1.5,0.7-3,1-4.7,1c-4.8,0-9.6,0.1-14.4,0c-1.1,0-1.5,0.2-1.5,1.4c0.1,4.9,0.1,9.7,0,14.6c0,1.2,0.4,1.4,1.5,1.4
		c26.5,0,53.1,0,79.6,0c1.1,0,1.5-0.3,1.5-1.4c-0.1-4.9-0.1-9.7,0-14.6c0-1.2-0.4-1.5-1.5-1.4c-4.9,0-9.8,0.1-14.8,0
		c-6.5-0.2-9.5-3.3-9.5-9.7c0-13.9,0-27.9,0-41.8c0-1.3,0.3-1.6,1.6-1.6c11.3,0.1,22.7,0,34,0c6.9,0,13.8-0.6,20.5-2.3
		C500.5,140.6,509.1,136.1,515.1,127.8z M488.1,109.9c-1.8,9.1-7.8,14-16.4,16.3c-5.5,1.5-11.2,1.8-16.9,1.8c-6.2,0-12.4,0-18.6,0
		c-1.2,0-1.6-0.3-1.6-1.5c0.1-8,0-15.9,0-23.9c0-7.9,0-15.8,0-23.7c0-0.9-0.1-1.5,1.2-1.5c9.2,0.2,18.5-0.3,27.7,0.4
		c4.2,0.3,8.3,1.1,12.2,2.7c6.6,2.7,10.6,7.5,12.1,14.5C489,99.9,489.1,104.9,488.1,109.9z"/>
	<path style="fill:#212020;" d="M331.6,152.7c0-0.9,0-1.8,0-2.7c0.1-0.8-0.2-1-1-1c-5,0-10,0-14.9,0c-1,0-1.2,0.4-1.3,1.2
		c-0.2,3.3-0.4,6.5-0.7,9.8c-0.7,7.5-1.7,15-4.3,22.2c-2.7,7.5-7.3,13.1-15.2,15.3c-3.9,1.1-7.9,1.4-12,1.4c-11.7,0-23.5,0-35.2,0
		c-1.6,0-1.9-0.5-1.9-1.9c0-36,0-71.9,0-107.9c0-0.9,0-1.9,0.1-2.8c0.5-5.5,2.8-7.9,8.2-8.6c5.6-0.7,11.3-0.2,16.9-0.3
		c1.1,0,1.4-0.3,1.4-1.4c0-4.9-0.1-9.7,0-14.6c0-1.2-0.3-1.5-1.5-1.5c-27.2,0-54.4,0-81.6,0c-1.3,0-1.5,0.4-1.5,1.6
		c0.1,4.7,0.1,9.4,0,14.1c0,1.4,0.3,1.8,1.8,1.8c5.3,0,10.6-0.4,15.9,0.3c5.2,0.7,7.7,3.4,8,8.7c0,0.7,0,1.4,0,2.2
		c0,32.9,0,65.7,0,98.6c0,0.7,0,1.4,0,2.2c-0.3,5.8-3.5,9-9.3,9.3c-0.9,0-1.9,0-2.8,0c-4,0-8.1,0-12.1,0c-1.1,0-1.4,0.3-1.4,1.4
		c0.1,4.7,0.1,9.4,0,14.1c0,1.6,0.3,2,2,2c23.5-0.1,46.9,0,70.4,0c23.5,0,46.9,0,70.4,0c1.6,0,1.9-0.5,1.9-1.9
		C331.6,193.7,331.6,173.2,331.6,152.7z"/>
</g>
</svg>
