<?xml version="1.0" encoding="utf-8"?>
<!-- Generator: Adobe Illustrator 22.0.0, SVG Export Plug-In . SVG Version: 6.00 Build 0)  -->
<svg version="1.1" id="Capa_1" xmlns="http://www.w3.org/2000/svg" xmlns:xlink="http://www.w3.org/1999/xlink" x="0px" y="0px"
	 viewBox="0 0 2847.1 710.9" style="enable-background:new 0 0 2847.1 710.9;" xml:space="preserve">
<g>
	<path style="fill:none;" d="M158,263.2c0,47.6,23.4,92.3,62.8,119.7l24.8,17.5v67.2h116.8v-67.2l24.8-17.5
		c39.4-27.4,62.8-72.1,62.8-119.7c0-3.5-0.1-7-0.4-10.4H356v-126c-16.2-6.2-33.7-9.6-52-9.6C223.4,117.2,158,182.6,158,263.2z"/>
	<path style="fill:#FFFFFF;" d="M216.4,613.6c0,16.1,13.1,29.2,29.2,29.2h116.8c16.1,0,29.2-13.1,29.2-29.2v-29.2H216.4V613.6z"/>
	<path style="fill:#FFFFFF;" d="M450,263.2c0,47.6-23.4,92.3-62.8,119.7l-24.8,17.5v67.2H245.6v-67.2l-24.8-17.5
		c-39.4-27.4-62.8-72.1-62.8-119.7c0-80.6,65.4-146,146-146c18.3,0,35.8,3.4,52,9.6V65.5c-16.6-4.4-34-6.7-52-6.7
		c-112.7,0-204.4,91.7-204.4,204.4c0,69.5,34.7,130.5,87.6,167.6v66c0,16.1,13.1,29.2,29.2,29.2h175.2c16.1,0,29.2-13.1,29.2-29.2
		v-66c52.9-37.1,87.6-98.1,87.6-167.6c0-3.5-0.1-7-0.3-10.4h-58.5C449.9,256.2,450,259.7,450,263.2z"/>
	<path style="fill:#FFFFFF;" d="M474,312.8H359c-16.6,0-30-13.4-30-30v0c0-16.6,13.4-30,30-30h115c16.6,0,30,13.4,30,30v0
		C504,299.3,490.6,312.8,474,312.8z"/>
</g>
<g>
	<path style="fill:#FFFFFF;" d="M997.4,344.7c0,23.4-4.6,46.7-13.7,68.6c-9.1,20.8-21.8,39.6-38.1,55.9
		c-16.3,16.3-35.1,29-55.9,38.1c-21.8,9.1-45.2,13.7-69.1,13.7c-23.4,0-46.7-4.6-68.6-13.7c-20.8-9.1-39.6-21.8-55.9-38.1
		c-16.3-16.3-29-35.1-38.1-55.9c-9.1-21.8-13.7-45.2-13.7-68.6c0-23.9,4.6-47.3,13.7-69.1c9.1-20.8,21.8-39.6,38.1-55.9
		c16.3-16.3,35.1-29,55.9-38.1c21.8-9.1,44.7-13.7,68.1-13.7c57.4-1.5,108.7,22.4,146.9,73.2c8.6,11.7,3,27.9-9.1,35.1
		c-12.7,7.1-26.4,1.5-35.6-9.1c-29-34-62-48.3-102.1-48.3c-69.1,0.5-125,56.4-125,126c0,69.1,56.4,125.5,125.5,125.5
		c61,0,111.8-43.2,123.5-100.1H833.8c-14.2,0-25.4-11.7-25.4-25.4c0-14.2,11.2-25.4,25.4-25.4H972
		C985.7,319.3,997.4,330.5,997.4,344.7z"/>
	<path style="fill:#FFFFFF;" d="M1178.3,292.4c0,13.7-11.2,25.4-25.4,25.4c-42.7,0-77.2,34.6-77.2,77.2v102.1
		c0,13.7-11.2,25.4-24.9,25.4c-14.2,0-25.4-11.7-25.4-25.4V395c0-70.6,57.4-127.5,127.5-127.5
		C1167.1,267.5,1178.3,278.6,1178.3,292.4z"/>
	<path style="fill:#FFFFFF;" d="M1428.8,396.5v99.6c0,14.7-10.7,25.4-25.4,25.4c-10.2,0-24.4-10.7-24.4-25.4
		c-21.8,18.3-46.2,25.4-75.2,25.4c-71.6,0-128.6-53.4-128.6-125c0-71.6,56.9-128.6,128.6-128.6S1428.8,324.9,1428.8,396.5z
		 M1379,396.5c0-42.7-32.5-78.8-75.2-78.8c-42.7,0-78.8,36.1-78.8,78.8s36.1,75.2,78.8,75.2C1346.4,471.7,1379,439.2,1379,396.5z"/>
	<path style="fill:#FFFFFF;" d="M1714.3,394.5v102.1c0,14.2-11.2,25.4-25.4,25.4c-13.7,0-24.9-11.2-24.9-25.4V394.5
		c0-42.7-34.6-77.2-77.2-77.2c-42.7,0-77.2,34.6-77.2,77.2v102.1c0,14.2-11.2,25.4-25.4,25.4c-13.7,0-24.9-11.2-24.9-25.4V394.5
		c0-70.6,57.4-127.5,127.5-127.5S1714.3,323.9,1714.3,394.5z"/>
	<path style="fill:#FFFFFF;" d="M1885.6,292.4c0,13.7-11.2,25.4-25.4,25.4h-36.1v179.4c0,13.7-11.2,25.4-25.4,25.4
		c-13.7,0-24.9-11.7-24.9-25.4V317.8h-36.6c-13.7,0-24.9-11.7-24.9-25.4c0-13.7,11.2-24.9,24.9-24.9h36.6V165.8
		c0-13.7,11.2-24.9,24.9-24.9c14.2,0,25.4,11.2,25.4,24.9v101.6h36.1C1874.4,267.5,1885.6,278.6,1885.6,292.4z"/>
	<path style="fill:#FFFFFF;" d="M2139.6,394.5c0,13.7-11.2,24.9-25.4,24.9h-175.3c10.7,30.5,39.1,52.3,73.2,52.3
		c11.7,0,32.5-1,56.9-16.8c11.7-7.6,27.4-0.5,33.5,11.7c6.1,12.7-0.5,25.9-12.2,33.5c-33.5,22.4-59.5,21.8-78.3,21.8
		c-70.6,0-127.5-57.4-127.5-127.5c0-70.6,56.9-127.5,127.5-127.5C2073.6,267,2139.6,311.7,2139.6,394.5z M1938.9,369.1h146.9
		c-10.7-35.6-43.2-51.8-73.7-51.8C1978,317.3,1949.6,339.1,1938.9,369.1z"/>
	<path style="fill:#FFFFFF;" d="M2425.2,394.5c0,13.7-11.2,24.9-25.4,24.9h-175.3c10.7,30.5,39.1,52.3,73.2,52.3
		c11.7,0,32.5-1,56.9-16.8c11.7-7.6,27.4-0.5,33.5,11.7c6.1,12.7-0.5,25.9-12.2,33.5c-33.5,22.4-59.5,21.8-78.3,21.8
		c-70.6,0-127.5-57.4-127.5-127.5c0-70.6,56.9-127.5,127.5-127.5C2359.1,267,2425.2,311.7,2425.2,394.5z M2224.5,369.1h146.9
		c-10.7-35.6-43.2-51.8-73.7-51.8C2263.6,317.3,2235.1,339.1,2224.5,369.1z"/>
	<path style="fill:#FFFFFF;" d="M2660.9,291.9V165.3c0-13.7,11.2-24.9,24.9-24.9c14.2,0,25.4,11.2,25.4,24.9V393v0.5
		c0,70.1-57.4,127.5-127.5,127.5c-70.6,0-127.5-57.4-127.5-127.5c0-70.6,56.9-127.5,127.5-127.5
		C2612.7,265.9,2639.6,275.6,2660.9,291.9z M2660.9,393.5V393c0-42.2-34.6-76.7-77.2-76.7c-42.7,0-77.2,34.6-77.2,77.2
		c0,42.2,34.6,77.2,77.2,77.2C2626.4,470.7,2660.9,436.2,2660.9,393.5z"/>
</g>
</svg>
