<?xml version="1.0" encoding="utf-8"?>
<!-- Generator: Adobe Illustrator 22.0.0, SVG Export Plug-In . SVG Version: 6.00 Build 0)  -->
<svg version="1.1" id="Capa_1" xmlns="http://www.w3.org/2000/svg" xmlns:xlink="http://www.w3.org/1999/xlink" x="0px" y="0px"
	 viewBox="0 0 900 900" style="enable-background:new 0 0 900 900;" xml:space="preserve">
<g>
	<path style="fill:#4C54C8;" d="M607.5,524.9c-4.7,0.5-6.8-0.1-8.4-5c-3.7-11.4-10.4-21.1-19.7-28.6c-4.2-3.4-4.4-4.7,0.2-8.1
		c13.5-9.9,21.5-23.5,23.1-40.2c0.9-9.4,0.7-19,0.4-28.5c-0.9-33.8-26-58.3-59.7-58.5c-20.4-0.1-40.9-0.1-61.3,0.1
		c-4.3,0-7.3-1.2-10.2-4.3c-12-13-24-25.9-36.4-38.4c-4.7-4.7-4.9-6.7,1.3-10.5c63.8-38.9,86.6-117.4,53.7-184.4
		c-2-4-1.7-6.7,0.6-10.5c11-17.9,10.3-37.1-1.3-52.6c-15.5-20.6-43.4-24.8-67.7-9.7c-4.6,2.9-8.1,3.1-13,1.4
		c-29.7-10.3-59.8-11.7-89.8-2.1c-9.4,3-17.3,4.1-25.5-2.2c-2.7-2.1-6.6-2.9-10.1-3.9c-27.6-7.5-51.8,4.2-59.8,28.7
		c-4.7,14.7-2.6,28.8,4.6,42.1c2.4,4.4,2.6,7.6,0.5,12.2c-18.1,40-18.1,80.1,0.3,120c13.4,29.2,35,50.8,64,66.3
		c-14.8,15.5-29.3,30.6-43.7,45.8c-2.3,2.5-5.1,1.8-7.8,1.8c-22.1,0.1-44.2-0.2-66.4,0.2c-26.2,0.5-48.8,18-55.1,43.5
		c-4.2,16.7-3.7,34-0.4,50.8c3.2,16.1,13.4,27.9,27.1,36.9c-37.6,28.7-40.8,84.2,3,115.8c-44.8,31.4-40.8,90.4,0.7,118.3
		c-26,18.8-37.6,43.4-30.8,74.6c7.2,33.6,35,54.1,71.2,54.2c118.4,0.1,236.9,0,355.3,0c5.1,0,9.8,0.8,14.7,2.5
		c42.2,15,84.5,14.7,126.4-1.2c79.6-30.2,124.8-112,107-193.1C776.2,574.8,693,515.4,607.5,524.9z M470.5,63.7
		c8.7,8.4,10.5,17.9,5,30.4c-10.9-13.1-22.9-24.4-37.4-33.3C450.6,54.7,462.4,55.9,470.5,63.7z M249.7,63.2
		c7.5-7.5,21.1-8.4,33.6-2.6c-14.9,9.5-27.5,21.1-38.9,35.5C240,83.1,240.6,72.2,249.7,63.2z M235.9,181.1
		c-0.1-67.5,56.4-122.6,125.2-122.4c68.7,0.2,124.5,55.6,124.3,123.4c-0.2,67.9-56.2,122.4-125.3,122.2
		C290.9,304,236,249.5,235.9,181.1z M295.7,334.8c10.1-13.1,20.1-18.9,38.4-13.4c23.2,6.9,47.7,3.8,71-3.8c2.8-0.9,5.3-2.1,8.2,1.1
		c11,12.2,22.5,24,34.9,37.1c-57.9,0-114.2,0-172.2,0C283.1,348.2,290.1,342,295.7,334.8z M138.1,428.6c0.4-5.6-0.1-11.2,0.3-16.8
		c1.7-20.6,17.7-35.7,38.4-35.7c122.6-0.1,245.2-0.1,367.9,0c21,0,37.2,16,38.2,36.8c0.3,7,0.2,14,0.1,21
		c-0.3,24.9-16.2,40.8-41.1,40.9c-52.9,0.2-105.8,0.1-158.7,0.1c-7.6,0-15.1,0-22.7,0c-58.8,0-117.6-0.6-176.4,0.3
		C157.7,475.7,135.8,460.1,138.1,428.6z M138.2,543.1c0.3-26.7,21-47.8,48.1-47.9c58.2-0.2,116.4-0.1,174.6-0.1
		c57.9,0,115.9-0.1,173.8,0c20,0,37.3,11.6,44.5,28.8c1.5,3.7,1.2,5.2-2.9,6.3c-37.2,9.7-67.8,29.6-92.1,59.2
		c-2.2,2.7-4.5,3.5-7.9,3.5c-96.8-0.1-193.7,0.1-290.5-0.2C159.1,592.6,137.9,569.9,138.2,543.1z M138.2,661.2
		c0.3-27.6,21.6-48.1,50.7-48.1c91.2-0.1,182.5,0,273.7,0c1.4,0,2.7,0.1,4.9,0.2c-7.1,14.5-13.2,28.7-16.5,44.1
		c-3.4,15.7-5.2,31.5-3.8,47.5c0.4,4.8-0.3,6.3-5.4,6.3c-84.8-0.2-169.6,0.1-254.4-0.3C158.8,710.6,137.9,688.6,138.2,661.2z
		 M508.9,829.9c-106.1,0-212.1,0-318.2,0c-24.2,0-42.3-11.9-49.9-32.4c-12-32.7,12-66.1,48.1-66.3c55.1-0.3,110.3-0.1,165.4-0.1
		c29.9,0,59.9,0,89.8,0c4.1,0,7.1,0,8.5,5.2c10.3,38,31.8,68.5,64.9,93.5C513.3,829.9,511.1,829.9,508.9,829.9z M685.6,830.1
		c-63.2,28.1-139.5,10.2-183.4-41.7c-54.1-63.9-45-156.2,20.4-209.1c81.9-66.2,207.2-34.7,245.6,61.5c3.2,8.1,5.6,16.4,7.4,24.9
		c1.9,9.4,2.5,18.9,2.9,28.5C775.1,758.3,744.2,804.1,685.6,830.1z"/>
	<path style="fill:#4C54C8;" d="M620,626.1c19.6-2.2,33.5,7,38.4,22.5c2,6.4,7.2,8.7,13.4,6.2c5.7-2.3,7.4-7,5.4-13.1
		c-5.5-16.5-16.5-28.1-33-33.1c-7.3-2.2-9.9-4.9-9.1-12.4c0.7-6.6-3.1-10.9-9.8-10.9c-6.8,0-9.8,4.5-10.2,11c-0.1,1.1-0.2,2.3,0,3.4
		c0.8,4.6-1,6.7-5.7,8.2c-20.3,6.4-32.4,24.8-31.7,47c0.6,18.4,14.4,34.9,33.8,40.2c5.1,1.4,10.5,2,15.5,3.7
		c16.4,5.3,28.1,18.9,28.1,31.9c0,14.9-9.5,24.3-26.9,26.5c-15.3,1.9-32-7.6-35.3-20.7c-1.8-7-5.2-11.2-12.8-9.7
		c-6.6,1.3-9,7.1-6.6,15.5c4.9,17.2,17.3,27,33.5,32.3c5.8,1.9,8.8,3.9,8.3,10.7c-0.5,6.3,3.1,11,10,10.9c6.8-0.1,10.6-4.5,9.8-11
		c-0.9-7.3,2.7-9,8.7-11c31.5-10.5,41.9-46,21.3-72c-10.6-13.5-24.6-21.7-41.5-24.9c-4.1-0.8-8.2-1.7-12-3.5
		c-10.2-5-15.2-14.5-13.3-25.5C600.4,635.1,608.1,627.4,620,626.1z"/>
	<path style="fill:#4C54C8;" d="M396.9,211.6c7,0.1,11.8-2.9,11.8-10c0-7-4.8-10.2-11.7-10.2c-9.5,0-19-0.1-28.5,0.1
		c-3.6,0.1-4.9-1-4.8-4.7c0.2-8.4,0.1-16.8,0.1-25.1s0.1-16.8,0-25.2c-0.1-6.8-3.3-11.5-10.6-11.2c-6.9,0.2-9.5,4.8-9.5,11.3
		c0,21.2,0,42.5,0,63.7c0,7.6,3.8,11.3,11.4,11.3C369,211.6,383,211.5,396.9,211.6z"/>
</g>
</svg>
