<?xml version="1.0" encoding="utf-8"?>
<!-- Generator: Adobe Illustrator 22.0.0, SVG Export Plug-In . SVG Version: 6.00 Build 0)  -->
<svg version="1.1" id="Capa_1" xmlns="http://www.w3.org/2000/svg" xmlns:xlink="http://www.w3.org/1999/xlink" x="0px" y="0px"
	 viewBox="0 0 900 900" style="enable-background:new 0 0 900 900;" xml:space="preserve">
<g>
	<path style="fill:#4C54C8;" d="M785.7,184.6c-191.6-0.1-383.2,0-574.8,0c-7.6,0-15,0.6-22.3,3c-28.3,9.1-47,34-46.9,64.4
		c0,8.6-2.6,10.5-10.3,9.8c-8-0.7-16.1-0.2-24.2-0.1C69,261.7,44.8,286,44.8,324.2c0,109.3,0.6,218.5-0.3,327.8
		c-0.3,35.5,26,63.9,63.6,63.5c97.9-1,195.9-0.3,293.9-0.3c35.5,0,71,0,106.6,0c63.5,0,127,0.1,190.5,0
		c30.1-0.1,53.3-18.6,58.8-47.2c1.3-6.8,1.5-14,0.8-20.9c-0.7-7.8,2.4-9.6,9.4-9c6.4,0.6,12.9,0.3,19.4,0.1c40-1.3,68-30,68-69.9
		c0.1-104.7,0.1-209.4,0-314.1C855.5,213.5,826.5,184.6,785.7,184.6z M324.4,253.1c5.4-13.5,8.1-27.9,9.1-42.4
		c0.4-5.7,2.1-6.9,7.5-6.9c65.6,0.2,131.3,0.1,196.9,0.1c39.3,0,78.5,0.1,117.8-0.1c5.3,0,7.4,1,7.7,6.9
		c0.8,17.2,5.5,33.7,11.3,49.9c-2.9,1.6-5.7,0.9-8.3,0.9c-111.9,0-223.8,0-335.7,0.2C322.9,261.8,321.6,260.2,324.4,253.1z
		 M739.6,429.3c0,4.5-0.9,5.9-5.8,5.3c-78.2-8.4-137.5-66.8-147.7-145.3c-0.9-6.7,0.5-8.6,7.6-8.6c34.4,0.4,68.9,0.1,103.3,0.2
		c26.9,0,42.4,15.6,42.5,42.6c0,16.4,0,32.8,0,49.2C739.5,391.7,739.4,410.5,739.6,429.3z M211.4,204c32-0.1,64,0.2,96-0.2
		c6.6-0.1,7.6,2.1,6.8,7.7c-2.1,14.4-5.3,28.5-10.3,42.1c-2.1,5.8-4.7,8.3-11.4,8.1c-20.4-0.6-40.9-0.2-61.3-0.2
		c-21.3,0-42.5-0.2-63.8,0.1c-5.1,0.1-6.7-1.2-6.7-6.6C160.6,224.5,180.6,204,211.4,204z M64.1,373c0-17.2-0.1-34.4,0-51.7
		c0.1-23.4,15.8-40,39.1-40.3c36.3-0.4,72.7,0.1,109-0.3c7.9-0.1,5.6,4.8,5.1,8.5c-6.7,51.8-31.9,92.3-75.8,120.7
		c-21.8,14.1-45.9,21.8-71.7,24.6c-4.7,0.5-6-0.4-5.9-5.1C64.3,410.7,64.1,391.9,64.1,373z M208.3,695.7c-17.5,0-35,0-52.5,0
		c-17.2,0-34.4,0.1-51.7,0c-23.7-0.2-39.9-16.4-40-40.1c-0.1-35.8,0.1-71.6-0.2-107.4c0-5.5,1.6-6.6,6.7-6
		c76.5,8.4,136.3,66.6,146.5,142.9C218.7,695.7,218.7,695.7,208.3,695.7z M739.5,656c-0.2,23.5-16.1,39.6-39.5,39.7
		c-36,0.2-72.1,0-108.1,0.2c-5,0-6.3-1.1-5.9-6.2c5.2-71.7,67.1-137.1,138.6-146.1c15-1.9,15-1.9,15,13.2c0,15.6,0,31.2,0,46.8
		C739.5,621,739.6,638.5,739.5,656z M739.8,465.1c-0.9,17.2-0.4,34.4-0.2,51.7c0.1,4.4-1.1,5.7-5.6,6.1
		c-84.9,8.7-148.6,66.9-165.1,150.3c-1,5-2.3,10.1-2.1,15.1c0.4,7-3,7.5-8.6,7.5c-104.1-0.1-208.3-0.2-312.4,0.1
		c-7.3,0-8.6-2.2-9.1-8.9c-5.7-77.3-70.3-148-146.8-161.3c-7.1-1.2-14.3-2.4-21.6-2.9c-3.7-0.3-4.3-1.6-4.3-4.9
		c0.1-19.6,0.3-39.3-0.1-58.9c-0.1-5.2,3-4.6,6.1-4.9c34.2-3.2,65.5-14.5,93-35.2c43.7-33,68.7-76.9,73.8-131.5
		c0.6-6.4,3.4-6.5,8.2-6.5c52.5,0.1,105,0.1,157.4,0.1c51.7,0,103.3,0.1,155-0.1c6.5,0,8.8,1,9.5,8.4c8.7,86.6,75.7,154.4,162.2,164
		C737.5,454.1,740.2,456.4,739.8,465.1z M720.6,265.1c-5.6-2.1-11.4-3.4-17.3-3.3c-5.4,0.2-8-1.9-9.9-7
		c-5.5-14.7-9.3-29.6-10.9-45.3c-0.5-4.6,0.9-5.9,5.5-5.8c17.5,0.3,35,0.1,52.5,0.1c15.3,0,30.7-0.1,46,0
		c29.3,0.3,49.5,20.6,49.6,49.9c0.1,32.6-0.1,65.1,0.2,97.7c0.1,5.7-1.8,6.5-6.8,5.9c-21.5-2.6-41.9-8.8-61.2-18.7
		c-7-3.6-9.8-7.7-9.6-16C759.1,295,744.7,274,720.6,265.1z M835.8,574.1c-0.5,22.7-19.4,41.7-42,43.9c-9.9,1-19.9,0.3-29.8,0.8
		c-4.6,0.2-5.2-2-5.2-5.8c0.1-19.9,0.1-39.8,0.1-59.8c0-19.4,0.1-38.8-0.1-58.1c0-3.8,0.7-6.3,4.4-8.4
		c21.3-12.3,44.2-19.3,68.6-21.8c3.9-0.4,4.5,0.9,4.5,4.3C836.1,504.1,836.7,539.1,835.8,574.1z M836.1,396.9
		c0.1,14.2,0.1,28.5,0,42.7c0,2.3,1.4,5.5-3.2,5.8c-25.7,1.9-50,8.9-73.7,21.2c0-37.5,0-73.7,0-110.8c17.8,9,35.9,15.5,55,18.8
		c1.1,0.2,2.1,0.5,3.2,0.7c6.1,0.8,14.8-0.5,17.5,2.9C838,382.3,836.1,390.5,836.1,396.9z"/>
	<path style="fill:#4C54C8;" d="M402.3,348.4C325.1,347.8,262,411,261.9,489c-0.1,76,62.8,139,139.2,139.4
		c76.9,0.4,140.4-62.1,140.9-138.6C542.4,412.2,480,348.9,402.3,348.4z M402.7,609c-66.2,1.1-120.7-53.1-121.4-120.6
		c-0.7-64.6,53.1-119.5,118.2-120.7c66.7-1.2,122.3,52.6,123.1,119C523.4,553.6,470.1,607.9,402.7,609z"/>
</g>
</svg>
