<?xml version="1.0" encoding="utf-8"?>
<!-- Generator: Adobe Illustrator 22.0.0, SVG Export Plug-In . SVG Version: 6.00 Build 0)  -->
<svg version="1.1" id="Capa_1" xmlns="http://www.w3.org/2000/svg" xmlns:xlink="http://www.w3.org/1999/xlink" x="0px" y="0px"
	 viewBox="0 0 900 900" style="enable-background:new 0 0 900 900;" xml:space="preserve">
<g>
	<path style="fill:#4C54C8;" d="M161.3,56.4C148,63.4,141,73.9,141,89.4c0.2,69.8,0.1,139.6,0.1,209.4c0,123,0,245.9,0,368.9
		c0,8.7,0.6,17.1,6.2,24.4c7.4,9.6,17,14,29,13.9c19.6-0.2,19.2,0,19.4,19.3c0.2,21.3,14,34.9,35.4,35.1c22,0.2,44.1,0.1,66.2,0
		c10.5,0,15.5-3.1,15.6-9c0.1-6.3-5-9.3-16-9.3c-20.2-0.1-40.5,0-60.7,0c-17.5-0.1-22-4.5-22-22.3c0-149.7,0-299.4,0-449.1
		c0-3.9,0.2-7.8-0.3-11.7c-0.6-5-3.2-8.3-8.4-8.6c-5.4-0.3-7.9,3.3-9,7.9c-1,4.3-0.7,8.8-0.7,13.2c0,132.3,0,264.6,0,396.9
		c0,19.1-2.2,21.1-21.2,18.8c-8.7-1-13.5-5.8-14.6-14.5c-0.4-3.4-0.3-6.7-0.3-10.1c0-188.6,0-377.2,0-565.8c0-2.3,0-4.7,0.1-7
		c0.6-11.7,5.7-16.8,17.5-17.4c2.9-0.1,5.7-0.1,8.6-0.1c154.9,0,309.8,0,464.6,0c23.3,0,27.8,4.5,27.8,27.6
		c0,14.3,0.1,28.5-0.1,42.8c-0.1,3.1,0.3,6.8-2.9,8.4c-3.7,1.8-6.3-1.3-8.7-3.6c-10.6-10.3-21.1-20.7-31.4-31.3
		c-5.2-5.4-11-7.9-18.6-7.9c-128.2,0.1-256.3,0-384.5,0.1c-22.8,0-36.2,13.6-36.4,36.5c-0.1,17.1-0.1,34.2,0,51.4
		c0,3.9-0.1,7.8,1.9,11.4c1.8,3.2,4.6,5,8.3,4.5c3.7-0.4,6.2-2.5,7.3-6.1c0.9-3,0.8-6.2,0.8-9.3c0-16.1-0.1-32.2,0-48.3
		c0.1-17,4.7-21.7,21.8-21.7c109,0,217.9,0,326.9,0c13,0,25.9-0.1,38.9,0c10.8,0.1,12.6,1.8,12.6,12.9c0.1,30.1,0,60.2,0.1,90.3
		c0,3.1-0.1,6.2,0.1,9.3c0.5,9.7,3.7,13,13.3,13.5c3.6,0.2,7.3,0.1,10.9,0.1c29.1,0,58.1,0,87.2,0c13.3,0,14.6,1.3,14.6,14.8
		c0,116.2,0,232.4,0,348.7c0,33.2,0,66.4,0,99.6c0,2.9,0.1,5.7-0.1,8.6c-0.6,11.6-5.8,17-17.6,17.2c-20.5,0.4-41,0.1-61.5,0.1
		c-3.4,0-6.8-0.1-10.1,0.6c-4.5,1-7.7,3.5-7.9,8.3c-0.2,5.2,3.3,7.9,8,9c2,0.5,4.1,0.5,6.2,0.5c22.1,0,44.1,0.2,66.2-0.1
		c22.2-0.3,35.1-13.5,35.1-35.8c0-157.2,0-314.4,0.1-471.6c0-9-2.7-15.8-9.2-22c-15.3-14.8-30.1-30.1-45.3-45
		c-5.6-5.5-8.1-11.5-8-19.4c0.2-23.3,0.1-46.7,0.1-70c0-5.5-0.5-10.9-1.7-16.2c-2.1-9.7-7.4-16.9-16-21.9c-3-1.8-7.2-2.3-7.9-6.8
		c-168.1,0-336.2,0-504.4,0C166.6,54.9,163.5,55.2,161.3,56.4z M720.1,232.1c-3.1,0-6.3,0-9.5,0c-23.1,0-46.2-0.1-69.2,0.1
		c-4.5,0-6.2-0.7-6.2-5.8c0.3-26.2,0.1-52.4,0.1-79C663.7,175.7,691.7,203.7,720.1,232.1z"/>
	<path style="fill:#4C54C8;" d="M138.5,89.4c0.1,193.8,0.1,387.6,0.1,581.4c0,23.3,14.5,37.6,38,37.7c16.5,0.1,16.5,0.1,16.6,16.9
		c0.1,22.8,14.6,37.5,37.4,37.6c23.3,0.1,46.7,0,70,0c9.7,0,15.2-4.4,15.3-11.7c0-7.3-5.6-11.6-15.2-11.6c-22.3,0-44.6,0-66.9,0
		c-13.9,0-17.2-3.3-17.2-17.5c0-152.3,0-304.6,0-456.8c0-2.6,0.2-5.2-0.1-7.8c-0.8-6.2-4.5-9.9-10.7-10.3
		c-6.6-0.4-10.8,3.2-12.2,9.5c-0.6,2.7-0.3,5.7-0.3,8.5c0,134.9,0,269.8,0,404.7c0,15.3,0,15.3-15.1,15.2
		c-12.6,0-16.2-3.5-16.2-16.1c0-192.8,0-385.5,0-578.3c0-12.2,3.6-15.8,15.6-15.8c160.6,0,321.2,0,481.8,0c11.8,0,15.8,4,15.8,16
		c0.1,18.4,0.1,36.8,0,55.3c0,1.5,1.2,3.7-1.9,4.9c-13-13.1-26.2-26.2-39.2-39.6c-3.7-3.8-7.7-5.5-13.1-5.5
		c-130.5,0.1-261,0-391.5,0.1c-20.9,0-36,14.9-36.2,35.6c-0.2,20-0.1,40,0,59.9c0,8.9,4.7,14.3,11.9,14.2
		c7.2-0.1,11.4-5.3,11.4-14.5c0-19.2,0-38.4,0-57.6c0-10,4.2-14.2,14.2-14.2c125,0,250.1,0,375.1-0.2c5.4,0,6.2,1.8,6.2,6.5
		c-0.2,34.5-0.1,69-0.1,103.5c0,12.5,3.7,16.2,16.2,16.2c34.2,0,68.5,0.1,102.7-0.1c5.6,0,7.3,1,7.3,7
		C738,416.2,738.1,570,738,723.8c0,12-3.7,15.7-15.8,15.7c-22.6,0-45.1,0-67.7,0c-9.3,0-14.5,4.1-14.6,11.3c-0.2,7.5,5.2,12,14.8,12
		c23.1,0,46.2,0.1,69.3,0c22.9-0.1,37.4-14.6,37.4-37.5c0-159.3,0-318.6,0.1-477.9c0-6.2-2-10.8-6.4-15.1
		c-17.4-17.1-34.5-34.5-51.9-51.6c-3.4-3.3-4.9-6.6-4.9-11.5c0.2-26.5,0.1-52.9,0.1-79.4c0-10.5-2.8-19.9-10.1-27.8
		c-4.8-5.3-11.5-7.3-17.4-10.8c0.7,4.5,4.9,5.1,7.9,6.8c8.6,5,13.9,12.2,16,21.9c1.2,5.4,1.7,10.7,1.7,16.2c0,23.3,0.1,46.7-0.1,70
		c-0.1,7.8,2.4,13.9,8,19.4c15.2,14.9,30,30.2,45.3,45c6.4,6.2,9.2,13,9.2,22c-0.2,157.2-0.1,314.4-0.1,471.6
		c0,22.3-12.9,35.5-35.1,35.8c-22,0.3-44.1,0.1-66.2,0.1c-2.1,0-4.2,0-6.2-0.5c-4.8-1.1-8.2-3.8-8-9c0.2-4.8,3.4-7.3,7.9-8.3
		c3.3-0.7,6.7-0.6,10.1-0.6c20.5-0.1,41,0.2,61.5-0.1c11.8-0.2,17-5.6,17.6-17.2c0.1-2.9,0.1-5.7,0.1-8.6c0-33.2,0-66.4,0-99.6
		c0-116.2,0-232.4,0-348.7c0-13.5-1.3-14.8-14.6-14.8c-29.1-0.1-58.1,0-87.2,0c-3.6,0-7.3,0.1-10.9-0.1c-9.6-0.5-12.8-3.8-13.3-13.5
		c-0.2-3.1-0.1-6.2-0.1-9.3c0-30.1,0.1-60.2-0.1-90.3c-0.1-11-1.8-12.7-12.6-12.9c-13-0.2-25.9,0-38.9,0c-109,0-217.9,0-326.9,0
		c-17.1,0-21.7,4.7-21.8,21.7c-0.1,16.1,0,32.2,0,48.3c0,3.1,0.1,6.3-0.8,9.3c-1.1,3.6-3.6,5.6-7.3,6.1c-3.8,0.4-6.5-1.3-8.3-4.5
		c-2-3.5-1.9-7.5-1.9-11.4c-0.1-17.1-0.1-34.2,0-51.4c0.2-22.9,13.5-36.5,36.4-36.5c128.2-0.1,256.3,0,384.5-0.1
		c7.6,0,13.4,2.5,18.6,7.9c10.3,10.6,20.8,21.1,31.4,31.3c2.3,2.3,4.9,5.4,8.7,3.6c3.2-1.6,2.9-5.3,2.9-8.4
		c0.2-14.3,0.1-28.5,0.1-42.8c0-23.2-4.5-27.6-27.8-27.6c-154.9,0-309.8,0-464.6,0c-2.9,0-5.7-0.1-8.6,0.1
		c-11.7,0.5-16.9,5.7-17.5,17.4c-0.1,2.3-0.1,4.7-0.1,7c0,188.6,0,377.2,0,565.8c0,3.4-0.1,6.8,0.3,10.1c1.1,8.7,5.9,13.5,14.6,14.5
		c18.9,2.2,21.2,0.2,21.2-18.8c0-132.3,0-264.6,0-396.9c0-4.4-0.3-8.9,0.7-13.2c1.1-4.7,3.6-8.2,9-7.9c5.2,0.3,7.8,3.6,8.4,8.6
		c0.5,3.9,0.3,7.8,0.3,11.7c0,149.7,0,299.4,0,449.1c0,17.7,4.5,22.2,22,22.3c20.2,0.1,40.5,0,60.7,0c11.1,0,16.2,3.1,16,9.3
		c-0.1,6-5.2,9-15.6,9c-22.1,0.1-44.1,0.2-66.2,0c-21.4-0.2-35.1-13.8-35.4-35.1c-0.2-19.3,0.1-19.5-19.4-19.3
		c-12,0.1-21.6-4.3-29-13.9c-5.6-7.3-6.2-15.7-6.2-24.4c0-123,0-245.9,0-368.9c0-69.8,0.1-139.6-0.1-209.4
		c0-15.5,6.9-26.1,20.3-33.1c2.2-1.1,5.2-1.4,5.3-4.9C148.7,57.8,138.5,69.3,138.5,89.4z"/>
	<path style="fill:#4C54C8;" d="M477.8,555.4c-80.8-0.1-146.3,64.9-146.7,145.9c-0.4,80.6,65,146.8,145.6,147.2
		c80.7,0.4,147-64.9,147.6-145.3C624.8,621.7,559.3,555.5,477.8,555.4z M477.3,825.2c-67.8-0.1-123-55.6-122.8-123.5
		c0.2-68.1,55.1-123,123.2-122.9c68,0,123.2,55.1,123.3,123C601,769.9,545.5,825.3,477.3,825.2z"/>
	<path style="fill:#4C54C8;" d="M334.9,347.3c3,0.7,6.2,0.6,9.3,0.6c44.3,0,88.7,0,133,0c44.6,0,89.2,0,133.8,0c2.8,0,5.7,0,8.5-0.4
		c5.9-1,9.2-4.9,9.4-10.7c0.2-6.2-3-10.4-9.2-11.7c-2.5-0.5-5.1-0.5-7.7-0.5c-89.4,0-178.9,0-268.3,0c-3.1,0-6.3,0-9.2,0.8
		c-5.4,1.5-8,5.6-7.8,11.1C326.7,342.1,329.5,346,334.9,347.3z"/>
	<path style="fill:#4C54C8;" d="M617.8,393.7c-2.1-0.2-4.1-0.1-6.2-0.1c-89.4,0-178.9,0-268.3,0c-2.3,0-4.7-0.1-7,0.3
		c-5.9,0.9-9.3,4.5-9.7,10.4c-0.4,5.9,2.2,10.2,7.9,11.8c2.9,0.8,6.1,0.9,9.2,0.9c44.6,0.1,89.2,0,133.8,0c44.6,0,89.2,0,133.8,0
		c2.6,0,5.3,0.2,7.7-0.3c6.4-1.3,10.2-5.4,9.8-12C628.4,398.1,624.5,394.2,617.8,393.7z"/>
	<path style="fill:#4C54C8;" d="M503.7,487.2c9.8,0,15-4.2,15-11.8c0-7.6-5-11.5-15-11.5c-26.7,0-53.4,0-80.1,0
		c-27.5,0-54.9,0-82.4,0c-9.5,0-14.4,3.8-14.6,11.2c-0.2,7.6,5.1,12.1,14.6,12.1C395.3,487.2,449.5,487.2,503.7,487.2z"/>
	<path style="fill:#4C54C8;" d="M616.5,463.9c-9.1-0.2-18.1,0-27.2,0c-8.5,0-17.1-0.1-25.6,0c-8.2,0.1-12.8,4.3-13,11.2
		c-0.2,6.9,4.6,11.9,12.3,12c17.9,0.2,35.7,0.2,53.6,0c7.7-0.1,12.6-5.4,12.3-12.1C628.7,468.5,623.9,464,616.5,463.9z"/>
	<path style="fill:#4C54C8;" d="M488.3,625.5c-8-8-13.3-7.9-21.1-0.1c-15.4,15.4-30.8,30.8-46.2,46.2c-6.9,7-7.8,13.6-2.6,18.9
		c5.4,5.5,11.8,4.9,18.9-2.3c9.1-9.1,17.9-18.4,27.2-27.9c2.2,3.5,1.4,6.1,1.4,8.5c0.1,32.4,0,64.8,0,97.2c0,12.3,4,18.2,12,18
		c7.9-0.2,11.3-5.6,11.3-17.7c0-34.9,0-69.8,0-107c10.8,10.8,20,20.2,29.4,29.5c6.6,6.5,13.1,7.1,18.4,1.8c5.1-5.1,4.5-11.9-2-18.4
		C519.5,656.6,503.9,641,488.3,625.5z"/>
</g>
</svg>
