<?xml version="1.0" encoding="utf-8"?>
<!-- Generator: Adobe Illustrator 22.0.0, SVG Export Plug-In . SVG Version: 6.00 Build 0)  -->
<svg version="1.1" id="Capa_1" xmlns="http://www.w3.org/2000/svg" xmlns:xlink="http://www.w3.org/1999/xlink" x="0px" y="0px"
	 viewBox="0 0 2847.1 710.9" style="enable-background:new 0 0 2847.1 710.9;" xml:space="preserve">
<g>
	<path style="fill:none;" d="M158,263.2c0,47.6,23.4,92.3,62.8,119.7l24.8,17.5v67.2h116.8v-67.2l24.8-17.5
		c39.4-27.4,62.8-72.1,62.8-119.7c0-3.5-0.1-7-0.4-10.4H356v-126c-16.2-6.2-33.7-9.6-52-9.6C223.4,117.2,158,182.6,158,263.2z"/>
	<path style="fill:#4F6DE2;" d="M216.4,613.6c0,16.1,13.1,29.2,29.2,29.2h116.8c16.1,0,29.2-13.1,29.2-29.2v-29.2H216.4V613.6z"/>
	<path style="fill:#4F6DE2;" d="M450,263.2c0,47.6-23.4,92.3-62.8,119.7l-24.8,17.5v67.2H245.6v-67.2l-24.8-17.5
		c-39.4-27.4-62.8-72.1-62.8-119.7c0-80.6,65.4-146,146-146c18.3,0,35.8,3.4,52,9.6V65.5c-16.6-4.4-34-6.7-52-6.7
		c-112.7,0-204.4,91.7-204.4,204.4c0,69.5,34.7,130.5,87.6,167.6v66c0,16.1,13.1,29.2,29.2,29.2h175.2c16.1,0,29.2-13.1,29.2-29.2
		v-66c52.9-37.1,87.6-98.1,87.6-167.6c0-3.5-0.1-7-0.3-10.4h-58.5C449.9,256.2,450,259.7,450,263.2z"/>
	<path style="fill:#4F6DE2;" d="M474,312.8H359c-16.6,0-30-13.4-30-30v0c0-16.6,13.4-30,30-30h115c16.6,0,30,13.4,30,30v0
		C504,299.3,490.6,312.8,474,312.8z"/>
</g>
<g>
	<path d="M642.4,336c0-109.2,89.3-195.2,195.8-195.2c69.9,0,132.5,36,165.8,95.9c10,16.6,3.3,33.8-10,39.9
		c-12.8,6.7-29.9,3.3-36.6-10c-26.1-43.3-69.9-69.3-119.2-69.3C762.2,197.4,699,260,699,336c0,76.5,63.2,136.4,139.2,136.4
		c46,0,89.8-23.3,115.9-63.2c6.7-13.3,27.2-16.6,36.6-6.7c13.3,6.7,20,23.8,10,36.6c-36.6,56.6-95.9,89.8-162.5,89.8
		C731.7,529,642.4,442.5,642.4,336z"/>
	<path d="M1205.9,278.3c0,15-12.2,27.7-27.7,27.7c-46.6,0-84.3,37.7-84.3,84.3v111.5c0,15-12.2,27.7-27.2,27.7
		c-15.5,0-27.7-12.8-27.7-27.7V390.3c0-77.1,62.7-139.2,139.2-139.2C1193.7,251.2,1205.9,263.4,1205.9,278.3z"/>
	<path d="M1247.4,187.9c-5-5-8.3-12.2-8.3-19.4s3.3-14.4,8.3-19.4c5-5,12.2-8.3,19.4-8.3c7.2,0,14.4,3.3,19.4,8.3
		c5,5,7.8,12.2,7.8,19.4s-2.8,14.4-7.8,19.4c-5,5-12.2,7.8-19.4,7.8C1259.6,195.7,1252.4,192.9,1247.4,187.9z M1239.1,501.8V278.3
		c0-15,12.2-27.2,27.7-27.2c15,0,27.2,12.2,27.2,27.2v223.5c0,15.5-12.2,27.7-27.2,27.7C1251.3,529.5,1239.1,517.3,1239.1,501.8z"/>
	<path d="M1494.2,445.8c0,46-37.2,83.7-83.2,83.7c-39.4,0-71-28.3-81.5-60.4c-5-14.4,6.7-29.4,21.1-32.7c15-2.8,25.5,7.8,32.7,21.6
		c7.8,14.4,14.4,16.6,27.7,16.6c15.5,0,28.3-12.8,28.3-28.8c0-15.5-12.8-28.3-28.3-28.3c-22.2,0-43.3-8.9-58.8-24.4
		c-16.1-15.5-24.4-36.6-24.4-58.8c0-46,37.2-83.2,83.2-83.2c38.8,0,74.3,26.6,79.9,57.7c2.8,15-6.1,29.9-21.1,32.7
		c-15,3.3-27.7-6.7-32.7-20.5c-3.3-8.9-12.8-15-26.1-15c-15.5,0-28.3,12.8-28.3,28.3c0,15.5,12.8,28.3,28.3,28.3
		c22.2,0,43.3,8.9,58.8,24.4C1485.9,403.1,1494.2,423.6,1494.2,445.8z"/>
	<path d="M1704.9,278.3c0,15-12.2,27.7-27.7,27.7h-39.4v195.8c0,15-12.2,27.7-27.7,27.7c-15,0-27.2-12.8-27.2-27.7V306.1H1543
		c-15,0-27.2-12.8-27.2-27.7c0-15,12.2-27.2,27.2-27.2h39.9V140.2c0-15,12.2-27.2,27.2-27.2c15.5,0,27.7,12.2,27.7,27.2v110.9h39.4
		C1692.7,251.2,1704.9,263.4,1704.9,278.3z"/>
	<path d="M1722.1,389.8c0-77.1,62.7-139.2,139.2-139.2c77.1,0,139.2,62.1,139.2,139.2c0,76.5-62.1,139.2-139.2,139.2
		C1784.8,529,1722.1,466.3,1722.1,389.8z M1777,389.8c0,46,37.7,84.3,84.3,84.3c46.6,0,84.3-38.3,84.3-84.3
		c0-46.6-37.7-84.3-84.3-84.3C1814.7,305.5,1777,343.2,1777,389.8z M1820.3,149.7l43.3-43.3c10.5-10.5,28.3-10.5,38.8,0
		c10.5,11.1,10.5,28.3,0,38.8l-43.3,43.3c-11.1,11.1-28.3,11.1-38.8,0C1809.2,178,1809.2,160.8,1820.3,149.7z"/>
	<path d="M2310.5,388.7c0,76.5-62.1,139.2-139.2,139.2c-76.5,0-139.2-62.7-139.2-139.2v-0.6V139.7c0-15,12.2-27.2,27.7-27.2
		c15,0,27.2,12.2,27.2,27.2v138.1c23.3-17.7,52.7-28.3,84.3-28.3C2248.4,249.5,2310.5,311.6,2310.5,388.7z M2255.6,388.7
		c0-46.6-37.7-84.3-84.3-84.3c-46.6,0-84.3,37.7-84.3,83.7v0.6c0,46.6,37.7,84.3,84.3,84.3C2217.9,473,2255.6,434.7,2255.6,388.7z"
		/>
	<path d="M2619.9,392v108.7c0,16.1-11.6,27.7-27.7,27.7c-11.1,0-26.6-11.6-26.6-27.7c-23.8,20-50.5,27.7-82.1,27.7
		c-78.2,0-140.3-58.2-140.3-136.4c0-78.2,62.1-140.3,140.3-140.3C2561.7,251.7,2619.9,313.8,2619.9,392z M2565.6,392
		c0-46.6-35.5-86-82.1-86c-46.6,0-86,39.4-86,86s39.4,82.1,86,82.1C2530.1,474.1,2565.6,438.6,2565.6,392z"/>
	<path d="M2652.1,501.8v-361c0-15,12.2-27.2,27.7-27.2c15,0,27.2,12.2,27.2,27.2v361c0,15.5-12.2,27.7-27.2,27.7
		C2664.3,529.5,2652.1,517.3,2652.1,501.8z"/>
</g>
</svg>
