<?xml version="1.0" encoding="utf-8"?>
<!-- Generator: Adobe Illustrator 22.0.0, SVG Export Plug-In . SVG Version: 6.00 Build 0)  -->
<svg version="1.1" id="Capa_1" xmlns="http://www.w3.org/2000/svg" xmlns:xlink="http://www.w3.org/1999/xlink" x="0px" y="0px"
	 viewBox="0 0 900 900" style="enable-background:new 0 0 900 900;" xml:space="preserve">
<g>
	<g>
		<path style="fill:#4C54C8;" d="M449.6,323.3c-115.7,0-231.3,0-347,0C75,323.3,53.5,309.2,47,287c-8.1-27.8,16.6-55.9,50.3-57.4
			c1.9-0.1,3.8-0.1,5.7-0.1c231.3,0,462.7,0,694,0c28,0,49.5,14,56,36.3c8.1,27.8-16.6,55.9-50.3,57.4c-2.5,0.1-4.9,0.1-7.4,0.1
			C680.1,323.3,564.8,323.3,449.6,323.3z"/>
	</g>
	<g>
		<path style="fill:#4C54C8;" d="M449.6,501.6c-115.7,0-231.3,0-347,0c-27.6,0-49.1-14.1-55.6-36.2C39,437.6,63.6,409.4,97.3,408
			c1.9-0.1,3.8-0.1,5.7-0.1c231.3,0,462.7,0,694,0c28,0,49.5,14,56,36.3c8.1,27.8-16.6,55.9-50.3,57.4c-2.5,0.1-4.9,0.1-7.4,0.1
			C680.1,501.6,564.8,501.6,449.6,501.6z"/>
	</g>
	<g>
		<path style="fill:#4C54C8;" d="M449.6,685.4c-115.7,0-231.3,0-347,0c-27.6,0-49.1-14.1-55.6-36.2c-8.1-27.8,16.6-55.9,50.3-57.4
			c1.9-0.1,3.8-0.1,5.7-0.1c231.3,0,462.7,0,694,0c28,0,49.5,14,56,36.3c8.1,27.8-16.6,55.9-50.3,57.4c-2.5,0.1-4.9,0.1-7.4,0.1
			C680.1,685.4,564.8,685.4,449.6,685.4z"/>
	</g>
</g>
</svg>
